<?xml version="1.0" standalone="no"?>
<!DOCTYPE svg PUBLIC "-//W3C//DTD SVG 20010904//EN"
 "http://www.w3.org/TR/2001/REC-SVG-20010904/DTD/svg10.dtd">
<svg version="1.0" xmlns="http://www.w3.org/2000/svg"
 width="512.000000pt" height="512.000000pt" viewBox="0 0 512.000000 512.000000"
 preserveAspectRatio="xMidYMid meet">
<metadata>
Created by potrace 1.11, written by Peter Selinger 2001-2013
</metadata>
<g transform="translate(0.000000,512.000000) scale(0.100000,-0.100000)"
fill="#000000" stroke="none">
<path d="M0 3840 l0 -1275 335 335 335 335 2 366 3 366 175 -129 c96 -71 178
-132 182 -136 4 -4 -20 -90 -53 -192 -32 -102 -66 -206 -73 -232 l-14 -46 194
144 194 144 189 -140 c105 -77 192 -140 194 -140 3 0 -22 82 -54 183 -33 100
-65 203 -73 229 l-15 47 182 133 182 134 3 -366 2 -365 335 -335 335 -335 0
1275 0 1275 -335 -335 -335 -335 0 -228 0 -227 -232 2 -232 3 -71 222 c-38
122 -72 219 -75 217 -3 -3 -37 -103 -75 -222 l-71 -217 -232 -3 -232 -2 0 227
0 228 -335 335 -335 335 0 -1275z m1353 340 l67 -210 221 -2 220 -3 -176 -129
c-96 -71 -175 -134 -175 -140 0 -6 29 -101 65 -211 35 -109 62 -201 60 -203
-2 -3 -81 52 -175 122 -94 69 -175 126 -181 126 -5 0 -54 -33 -107 -73 -178
-134 -243 -180 -247 -175 -2 2 25 94 60 203 36 110 65 205 65 211 0 6 -79 69
-175 140 l-175 129 220 3 220 2 67 210 c37 116 70 210 73 210 3 0 36 -94 73
-210z"/>
<path d="M0 1280 l0 -1280 2560 0 2560 0 0 1280 0 1280 -2560 0 -2560 0 0
-1280z m4445 0 l0 -605 -605 0 -605 0 -3 595 c-1 327 0 601 3 608 3 10 130 12
607 10 l603 -3 0 -605z m-3362 581 c-95 -35 -157 -75 -233 -151 -76 -76 -116
-138 -151 -233 l-18 -52 -1 228 0 227 228 0 227 -1 -52 -18z m797 -208 l-1
-228 -18 50 c-36 101 -74 161 -150 235 -77 76 -140 117 -234 151 l-52 18 228
1 227 0 0 -227z m-465 195 c197 -41 386 -229 435 -433 15 -64 15 -206 0 -270
-49 -204 -231 -386 -435 -435 -64 -15 -206 -15 -270 0 -203 49 -386 232 -435
435 -15 64 -15 206 0 270 45 185 203 358 385 420 93 31 210 36 320 13z m-669
-870 c16 -29 62 -87 104 -129 74 -76 134 -114 235 -150 l50 -18 -227 -1 -228
0 0 228 1 227 18 -52 c11 -28 32 -76 47 -105z m1134 -73 l0 -225 -227 0 -228
1 50 18 c101 36 161 75 238 151 62 62 85 95 117 163 22 47 40 92 40 101 0 9 2
16 5 16 3 0 5 -101 5 -225z"/>
</g>
</svg>
